<svg width="22" height="26" viewBox="0 0 22 26" fill="none" xmlns="http://www.w3.org/2000/svg">
<path d="M2.625 25.0645C2.125 25.0645 1.6875 24.877 1.3125 24.502C0.9375 24.127 0.75 23.6895 0.75 23.1895V4.3457H2.625V23.1895H17.4375V25.0645H2.625ZM6.375 21.3145C5.875 21.3145 5.4375 21.127 5.0625 20.752C4.6875 20.377 4.5 19.9395 4.5 19.4395V1.93945C4.5 1.43945 4.6875 1.00195 5.0625 0.626953C5.4375 0.251953 5.875 0.0644531 6.375 0.0644531H20.125C20.625 0.0644531 21.0625 0.251953 21.4375 0.626953C21.8125 1.00195 22 1.43945 22 1.93945V19.4395C22 19.9395 21.8125 20.377 21.4375 20.752C21.0625 21.127 20.625 21.3145 20.125 21.3145H6.375ZM6.375 19.4395H20.125V1.93945H6.375V19.4395ZM6.375 19.4395V1.93945V19.4395Z"/>
</svg>
