<svg width="23" height="26" viewBox="0 0 23 26" fill="none" xmlns="http://www.w3.org/2000/svg">
<path d="M2.62814 25.5767C2.12814 25.5767 1.69064 25.3892 1.31564 25.0142C0.940643 24.6392 0.753143 24.2017 0.753143 23.7017V4.85791H2.62814V23.7017H17.4406V25.5767H2.62814ZM6.37814 21.8267C5.87814 21.8267 5.44064 21.6392 5.06564 21.2642C4.69064 20.8892 4.50314 20.4517 4.50314 19.9517V2.45166C4.50314 1.95166 4.69064 1.51416 5.06564 1.13916C5.44064 0.76416 5.87814 0.57666 6.37814 0.57666H20.1281C20.6281 0.57666 21.0656 0.76416 21.4406 1.13916C21.8156 1.51416 22.0031 1.95166 22.0031 2.45166V19.9517C22.0031 20.4517 21.8156 20.8892 21.4406 21.2642C21.0656 21.6392 20.6281 21.8267 20.1281 21.8267H6.37814ZM6.37814 19.9517H20.1281V2.45166H6.37814V19.9517ZM6.37814 19.9517V2.45166V19.9517Z" fill="#645ADF"/>
</svg>
