<svg width="16" height="16" viewBox="0 0 16 16" fill="none" xmlns="http://www.w3.org/2000/svg">
<g clip-path="url(#clip0_3143_1913)">
<path d="M4.50214 1.61503C2.77675 2.04039 1.5 3.59616 1.5 5.45425C1.5 5.73039 1.27614 5.95425 1 5.95425C0.723858 5.95425 0.5 5.73039 0.5 5.45425C0.5 2.71554 2.71554 0.5 5.45425 0.5C5.63438 0.5 5.8006 0.596896 5.88935 0.753651C5.9781 0.910405 5.97567 1.10278 5.883 1.25725L5.21486 2.37081C5.07278 2.6076 4.76565 2.68438 4.52886 2.54231C4.29207 2.40023 4.21529 2.0931 4.35737 1.85631L4.50214 1.61503Z"/>
<path d="M14.9992 10.0469C15.2753 10.0469 15.4992 10.2707 15.4992 10.5469C15.4992 13.2856 13.2836 15.5011 10.5449 15.5011C10.3648 15.5011 10.1986 15.4042 10.1098 15.2475C10.0211 15.0907 10.0235 14.8983 10.1162 14.7439L10.7843 13.6303C10.9264 13.3935 11.2335 13.3167 11.4703 13.4588C11.7071 13.6009 11.7839 13.908 11.6418 14.1448L11.497 14.3861C13.2224 13.9607 14.4992 12.405 14.4992 10.5469C14.4992 10.2707 14.723 10.0469 14.9992 10.0469Z"/>
<path fill-rule="evenodd" clip-rule="evenodd" d="M5.7724 7.36328C5.94412 7.36328 6.08332 7.47356 6.08332 7.6096V7.69055C6.52169 7.74764 6.92602 7.9542 7.16584 8.28328L7.32154 8.49692C7.4074 8.61473 7.35645 8.76538 7.20773 8.8334C7.05902 8.90141 6.86886 8.86105 6.783 8.74324L6.6273 8.5296C6.50325 8.35938 6.3051 8.2439 6.08332 8.19436L6.08332 9.73671L6.24047 9.78249C7.46333 10.1388 7.60675 11.4634 6.47836 11.9795C6.35177 12.0374 6.21881 12.0794 6.08332 12.1064V12.2075C6.08332 12.3436 5.94412 12.4539 5.7724 12.4539C5.60068 12.4539 5.46147 12.3436 5.46147 12.2075V12.1266C5.02314 12.0695 4.61885 11.8629 4.37905 11.5339L4.22335 11.3202C4.13749 11.2024 4.18844 11.0518 4.33716 10.9837C4.48587 10.9157 4.67603 10.9561 4.76189 11.0739L4.91758 11.2875C5.04162 11.4577 5.23973 11.5732 5.46147 11.6228V10.0804L5.30441 10.0346C4.08156 9.67831 3.93814 8.35376 5.06653 7.83766C5.19309 7.77977 5.32601 7.73771 5.46147 7.71078V7.6096C5.46147 7.47356 5.60068 7.36328 5.7724 7.36328ZM5.46147 8.23023C5.43309 8.24033 5.40505 8.25167 5.37746 8.26429C4.72381 8.56326 4.78698 9.31788 5.46147 9.55385L5.46147 8.23023ZM6.08332 11.5869C6.11174 11.5768 6.13981 11.5655 6.16743 11.5528C6.82111 11.2539 6.7579 10.4992 6.08332 10.2633V11.5869Z"/>
<path fill-rule="evenodd" clip-rule="evenodd" d="M10.118 1.47656C7.73356 1.47656 5.79186 3.35824 5.69563 5.71888C3.33834 5.81873 1.46045 7.75895 1.46045 10.141C1.46045 12.587 3.44056 14.5671 5.88655 14.5671C8.27099 14.5671 10.2127 12.6854 10.3089 10.3247C12.6662 10.2249 14.5441 8.28468 14.5441 5.90265C14.5441 3.45665 12.564 1.47656 10.118 1.47656ZM10.2447 9.32649C9.91431 7.526 8.49469 6.10634 6.69419 5.77591C6.76075 3.94104 8.26672 2.47656 10.118 2.47656C12.0117 2.47656 13.5441 4.00894 13.5441 5.90265C13.5441 7.75394 12.0796 9.25993 10.2447 9.32649ZM5.88655 6.71484C3.99284 6.71484 2.46045 8.24726 2.46045 10.141C2.46045 12.0347 3.99284 13.5671 5.88655 13.5671C7.78027 13.5671 9.31265 12.0347 9.31265 10.141C9.31265 10.096 9.31134 10.0525 9.30973 10.0028L9.30951 9.99575C9.30821 9.95568 9.30672 9.90977 9.30637 9.86244C9.17096 8.19012 7.83232 6.85554 6.15822 6.72646L6.1311 6.72486C6.03345 6.71907 5.96226 6.71484 5.88655 6.71484Z"/>
</g>
<defs>
<clipPath id="clip0_3143_1913">
<rect width="16" height="16"/>
</clipPath>
</defs>
</svg>
