<svg width="292" height="254" viewBox="0 0 292 254" fill="none" xmlns="http://www.w3.org/2000/svg">
<path d="M76.9087 126.723C76.9021 89.0258 107.68 58.392 145.572 58.3821C183.378 58.3722 214.163 88.9896 214.163 126.602C214.163 164.421 183.543 194.969 145.615 194.992C107.694 195.019 76.9153 164.438 76.9087 126.723ZM153.433 173.387C153.433 171.044 153.615 168.843 153.383 166.681C153.125 164.253 153.753 162.579 156.193 161.792C156.497 161.694 156.752 161.447 157.023 161.259C170.691 151.925 169.809 131.56 155.347 123.486C150.98 121.048 146.485 118.844 142.101 116.439C139.301 114.906 138.092 111.714 138.954 108.668C139.804 105.67 142.61 103.63 145.764 103.719C148.894 103.808 151.532 105.989 152.243 109.082C152.352 109.553 152.464 110.023 152.567 110.451H167.749C167.815 110.23 167.868 110.128 167.875 110.023C167.888 109.862 167.885 109.694 167.875 109.53C167.23 100.821 163.012 94.438 155.178 90.5294C153.849 89.8681 153.311 89.2199 153.393 87.7328C153.529 85.1863 153.43 82.6299 153.43 80.1262H137.665C137.665 82.8964 137.606 85.5252 137.692 88.1507C137.731 89.3121 137.305 89.8089 136.264 90.3221C127.715 94.517 123.121 101.41 123.213 110.902C123.296 119.4 127.365 125.871 134.826 130.066C139.09 132.461 143.496 134.603 147.787 136.952C150.557 138.469 151.826 141.608 151.063 144.539C150.266 147.596 147.546 149.721 144.425 149.728C141.358 149.734 138.634 147.691 137.797 144.74C137.635 144.174 137.556 143.585 137.427 142.963H122.185C122.142 143.25 122.079 143.457 122.086 143.664C122.103 144.266 122.096 144.875 122.185 145.47C123.484 154.084 128.109 160.18 136.201 163.549C137.378 164.039 137.745 164.589 137.695 165.806C137.596 168.303 137.665 170.81 137.665 173.38H153.43L153.433 173.387Z" fill="#645ADF"/>
<path d="M234.965 228.502H171.657C171.623 227.785 171.571 227.206 171.571 226.623C171.564 217.085 171.587 207.544 171.541 198.006C171.534 196.796 171.865 196.21 173.058 195.739C184.102 191.39 193.556 184.76 201.493 175.959C202.025 175.367 203.05 174.913 203.85 174.907C213.489 174.834 223.128 174.861 232.767 174.861H234.972C234.972 174.097 234.972 173.466 234.972 172.831C234.972 166.691 234.972 160.549 234.972 154.41C234.972 154.189 234.972 153.972 234.965 153.752C234.952 152.268 235.405 151.034 236.882 150.422C238.366 149.807 239.52 150.392 240.581 151.452C251.301 162.181 262.031 172.896 272.761 183.619C278.281 189.133 283.795 194.654 289.325 200.158C289.791 200.622 290.35 200.99 291.186 201.662C289.586 203.149 288.188 204.369 286.879 205.679C271.597 220.938 256.332 236.211 241.047 251.467C240.472 252.039 239.851 252.671 239.123 252.974C236.952 253.872 234.988 252.269 234.978 249.624C234.955 243.265 234.972 236.905 234.968 230.545C234.968 229.95 234.968 229.351 234.968 228.502H234.965Z" fill="#CAC9F9"/>
<path d="M0.179688 51.5223C5.84214 45.972 11.4451 40.5499 16.972 35.0489C28.0292 24.0403 39.0467 12.9923 50.0774 1.95738C50.3121 1.72378 50.5435 1.49019 50.7749 1.25659C51.7665 0.249832 52.9599 -0.0364039 54.2523 0.476847C55.5746 1.00326 56.1002 2.09227 56.1002 3.49055C56.0902 9.9029 56.1002 16.3153 56.1002 22.7309C56.1002 23.379 56.1002 24.0272 56.1002 24.853H119.547C119.547 25.5505 119.547 26.0703 119.547 26.5902C119.547 36.2366 119.528 45.8831 119.574 55.5296C119.58 56.6877 119.24 57.2339 118.123 57.6715C107.066 61.9946 97.5951 68.6044 89.7278 77.4645C88.9907 78.2969 88.2403 78.5733 87.1726 78.57C77.4806 78.5371 67.7887 78.5503 58.0967 78.5503H56.1035C56.1035 79.2872 56.1035 79.8696 56.1035 80.4519C56.1035 86.8643 56.0836 93.2766 56.1134 99.6923C56.12 101.202 55.7035 102.416 54.2226 103.012C52.7516 103.604 51.5781 103.032 50.517 101.969C33.9726 85.4166 17.4183 68.8742 0.870553 52.3251C0.718497 52.1738 0.589579 52.0027 0.179688 51.5223Z" fill="#CAC9F9"/>
</svg>
