<svg width="35" height="23" viewBox="0 0 35 23" fill="none" xmlns="http://www.w3.org/2000/svg">
<path d="M0.348792 18.0815C1.70867 14.0938 3.07401 10.1078 4.42721 6.11791C4.57292 5.68838 4.83943 5.41797 5.29049 5.25212C7.40377 4.47628 9.51158 3.68752 11.6182 2.89594C11.7699 2.83916 11.9211 2.7419 12.0286 2.62833C12.6678 1.95201 13.2944 1.265 13.9245 0.581362C14.5207 -0.0651679 15.1636 -0.0915913 15.8162 0.511649C17.499 2.06613 19.1801 3.62174 20.8605 5.17847C21.4633 5.7373 21.436 6.36134 20.7895 6.8735C20.0519 7.45819 19.3094 8.03726 18.5791 8.62925C18.4491 8.73495 18.3362 8.88056 18.2713 9.02898C17.4037 10.995 16.5429 12.9632 15.6899 14.9349C15.5224 15.3217 15.2455 15.5561 14.8151 15.6809C12.394 16.3803 9.97722 17.092 7.55918 17.7987C5.62257 18.3649 3.68717 18.9332 1.74874 19.4938C0.965594 19.7198 0.242552 19.2425 0.251051 18.4374C0.269263 18.3699 0.300225 18.2232 0.348792 18.0815ZM7.89673 15.5415C9.75684 14.9984 11.6164 14.4514 13.4789 13.9151C13.6926 13.8538 13.8104 13.7537 13.8935 13.5609C14.5935 11.9355 15.302 10.313 16.0184 8.69334C16.0985 8.51175 16.0864 8.39931 15.9303 8.25651C14.7641 7.19002 13.6058 6.11622 12.4517 5.03848C12.3163 4.91199 12.2119 4.89681 12.0334 4.96371C10.2456 5.63722 8.4516 6.29781 6.66373 6.97245C6.55142 7.01461 6.42818 7.12705 6.39236 7.23162C5.54365 9.69237 4.70647 12.1559 3.86748 14.6189C3.85594 14.6527 3.84805 14.6875 3.82012 14.7842C3.93729 14.6825 4.00832 14.6245 4.0751 14.5627C6.07242 12.7153 8.07035 10.8691 10.0646 9.01942C10.4052 8.70346 10.8029 8.59608 11.2564 8.72876C11.6789 8.85188 11.9284 9.13973 12.0019 9.54114C12.0717 9.92287 11.9096 10.231 11.6182 10.4997C9.64028 12.3252 7.66725 14.1546 5.69117 15.9817C5.62075 16.0469 5.53151 16.0953 5.45137 16.1515C5.46898 16.1802 5.48658 16.2094 5.5048 16.2381C6.30251 16.0064 7.10083 15.7754 7.89794 15.5426L7.89673 15.5415ZM18.4916 5.97792C17.3054 4.87882 16.1282 3.78871 14.9238 2.67274C14.6561 2.96228 14.364 3.27823 14.0842 3.5807C15.2279 4.6382 16.3577 5.68276 17.5136 6.7515C17.8372 6.4957 18.1741 6.22922 18.4916 5.97848V5.97792Z" fill="#645ADF"/>
<path d="M17.2514 22.076C22.5131 22.076 27.7741 22.076 33.0357 22.076C33.743 22.076 34.2359 21.6684 34.2499 21.0769C34.2627 20.5412 33.8517 20.0976 33.2761 20.0329C33.1559 20.0194 33.0339 20.0206 32.9125 20.0206C22.4706 20.0206 12.0286 20.02 1.58672 20.0223C1.3961 20.0223 1.19758 20.0273 1.01667 20.0751C0.518855 20.2067 0.201955 20.6767 0.256593 21.1635C0.310016 21.6431 0.734978 22.0316 1.25525 22.072C1.36574 22.0805 1.47745 22.0771 1.58915 22.0771C6.81011 22.0771 12.0311 22.0771 17.252 22.0771L17.2514 22.076Z" fill="#645ADF"/>
</svg>
