<svg width="14" height="14" viewBox="0 0 14 14" fill="none" xmlns="http://www.w3.org/2000/svg">
<path d="M8.5 1C8.5 0.723858 8.72386 0.5 9 0.5L9.66667 0.5C11.7838 0.5 13.5 2.21624 13.5 4.33333V5C13.5 5.27614 13.2761 5.5 13 5.5C12.7239 5.5 12.5 5.27614 12.5 5V4.33333C12.5 2.76853 11.2315 1.5 9.66667 1.5H9C8.72386 1.5 8.5 1.27614 8.5 1Z" fill="#8B8B8B"/>
<path d="M0.5 4.33333C0.5 2.21624 2.21624 0.5 4.33333 0.5H5C5.27614 0.5 5.5 0.723858 5.5 1C5.5 1.27614 5.27614 1.5 5 1.5H4.33333C2.76853 1.5 1.5 2.76853 1.5 4.33333V5C1.5 5.27614 1.27614 5.5 1 5.5C0.723858 5.5 0.5 5.27614 0.5 5V4.33333Z" fill="#8B8B8B"/>
<path fill-rule="evenodd" clip-rule="evenodd" d="M4.3035 2.5C4.31342 2.5 4.32336 2.5 4.33333 2.5C4.34331 2.5 4.35325 2.5 4.36317 2.5C4.65171 2.49996 4.91626 2.49993 5.13147 2.52887C5.36846 2.56073 5.61894 2.63569 5.82496 2.84171C6.03097 3.04772 6.10594 3.29821 6.1378 3.5352C6.16673 3.7504 6.1667 4.01496 6.16667 4.3035C6.16667 4.31342 6.16667 4.32336 6.16667 4.33333C6.16667 4.3433 6.16667 4.35325 6.16667 4.36316C6.1667 4.65171 6.16673 4.91626 6.1378 5.13147C6.10594 5.36846 6.03097 5.61894 5.82496 5.82496C5.61894 6.03097 5.36846 6.10594 5.13147 6.1378C4.91626 6.16673 4.65171 6.1667 4.36316 6.16667C4.35325 6.16667 4.3433 6.16667 4.33333 6.16667C4.32336 6.16667 4.31342 6.16667 4.3035 6.16667C4.01496 6.1667 3.7504 6.16673 3.5352 6.1378C3.29821 6.10594 3.04772 6.03097 2.84171 5.82496C2.63569 5.61894 2.56073 5.36846 2.52887 5.13147C2.49993 4.91626 2.49996 4.65171 2.5 4.36317C2.5 4.35325 2.5 4.34331 2.5 4.33333C2.5 4.32336 2.5 4.31342 2.5 4.3035C2.49996 4.01496 2.49993 3.7504 2.52887 3.5352C2.56073 3.29821 2.63569 3.04772 2.84171 2.84171C3.04772 2.63569 3.29821 2.56073 3.5352 2.52887C3.7504 2.49993 4.01496 2.49996 4.3035 2.5ZM3.5489 3.54871C3.549 3.54859 3.54888 3.54874 3.5489 3.54871ZM3.55045 3.54791L3.5489 3.54871L3.54791 3.55045C3.54723 3.55174 3.54616 3.55395 3.54477 3.55731C3.5388 3.57183 3.5286 3.60407 3.51995 3.66844C3.50106 3.80892 3.5 4.00493 3.5 4.33333C3.5 4.66174 3.50106 4.85774 3.51995 4.99822C3.5286 5.0626 3.5388 5.09484 3.54477 5.10936C3.54616 5.11272 3.54723 5.11493 3.54791 5.11622L3.54883 5.11784L3.55045 5.11876C3.55174 5.11943 3.55395 5.12051 3.55731 5.12189C3.57183 5.12787 3.60407 5.13806 3.66844 5.14672C3.80892 5.16561 4.00493 5.16667 4.33333 5.16667C4.66174 5.16667 4.85774 5.16561 4.99822 5.14672C5.0626 5.13806 5.09484 5.12787 5.10936 5.12189C5.11272 5.12051 5.11493 5.11943 5.11622 5.11876L5.11784 5.11784L5.11876 5.11622C5.11943 5.11493 5.12051 5.11272 5.12189 5.10936C5.12787 5.09484 5.13806 5.0626 5.14672 4.99822C5.16561 4.85774 5.16667 4.66174 5.16667 4.33333C5.16667 4.00493 5.16561 3.80892 5.14672 3.66844C5.13806 3.60407 5.12787 3.57183 5.12189 3.55731C5.12051 3.55395 5.11943 3.55174 5.11876 3.55045L5.11784 3.54883L5.11622 3.54791C5.11493 3.54723 5.11272 3.54616 5.10936 3.54477C5.09484 3.5388 5.0626 3.5286 4.99822 3.51995C4.85774 3.50106 4.66174 3.5 4.33333 3.5C4.00493 3.5 3.80892 3.50106 3.66844 3.51995C3.60407 3.5286 3.57183 3.5388 3.55731 3.54477C3.55395 3.54616 3.55174 3.54723 3.55045 3.54791ZM3.54883 5.11784C3.54865 5.11762 3.54856 5.11757 3.54883 5.11784ZM5.11784 5.11784C5.11781 5.11786 5.11796 5.11775 5.11784 5.11784Z" fill="#8B8B8B"/>
<path fill-rule="evenodd" clip-rule="evenodd" d="M9.63683 2.5H9.6965C9.98504 2.49996 10.2496 2.49993 10.4648 2.52887C10.7018 2.56073 10.9523 2.63569 11.1583 2.84171C11.3643 3.04772 11.4393 3.29821 11.4711 3.5352C11.5001 3.7504 11.5 4.01496 11.5 4.3035V4.36316C11.5 4.65171 11.5001 4.91626 11.4711 5.13147C11.4393 5.36846 11.3643 5.61894 11.1583 5.82496C10.9523 6.03097 10.7018 6.10594 10.4648 6.1378C10.2496 6.16673 9.98504 6.1667 9.6965 6.16667H9.63684C9.34829 6.1667 9.08374 6.16673 8.86853 6.1378C8.63154 6.10594 8.38106 6.03097 8.17504 5.82496C7.96903 5.61894 7.89406 5.36846 7.8622 5.13147C7.83327 4.91626 7.8333 4.65171 7.83333 4.36316C7.83333 4.35325 7.83333 4.3433 7.83333 4.33333C7.83333 4.32336 7.83333 4.31342 7.83333 4.3035C7.8333 4.01496 7.83327 3.7504 7.8622 3.5352C7.89406 3.29821 7.96903 3.04772 8.17504 2.84171C8.38106 2.63569 8.63154 2.56073 8.86853 2.52887C9.08374 2.49993 9.34829 2.49996 9.63683 2.5ZM8.88218 3.54878C8.88241 3.5486 8.88245 3.54851 8.88218 3.54878C8.88188 3.54908 8.882 3.54901 8.88218 3.54878ZM8.88378 3.54791L8.88218 3.54878L8.88124 3.55045C8.88057 3.55174 8.87949 3.55395 8.87811 3.55731C8.87213 3.57183 8.86194 3.60407 8.85328 3.66844C8.8344 3.80892 8.83333 4.00493 8.83333 4.33333C8.83333 4.66174 8.8344 4.85774 8.85328 4.99822C8.86194 5.0626 8.87213 5.09484 8.87811 5.10936C8.87949 5.11272 8.88057 5.11493 8.88124 5.11622L8.88216 5.11784L8.88378 5.11876C8.88507 5.11943 8.88728 5.12051 8.89064 5.12189C8.90516 5.12787 8.9374 5.13806 9.00178 5.14672C9.14226 5.16561 9.33826 5.16667 9.66667 5.16667C9.99507 5.16667 10.1911 5.16561 10.3316 5.14672C10.3959 5.13806 10.4282 5.12787 10.4427 5.12189C10.4461 5.12051 10.4483 5.11943 10.4496 5.11876L10.4512 5.11784L10.4521 5.11622C10.4528 5.11493 10.4538 5.11272 10.4552 5.10936C10.4612 5.09484 10.4714 5.0626 10.4801 4.99822C10.4989 4.85774 10.5 4.66174 10.5 4.33333C10.5 4.00493 10.4989 3.80892 10.4801 3.66844C10.4714 3.60407 10.4612 3.57183 10.4552 3.55731C10.4538 3.55395 10.4528 3.55174 10.4521 3.55045L10.4512 3.54882L10.4496 3.54791C10.4483 3.54723 10.4461 3.54616 10.4427 3.54477C10.4282 3.5388 10.3959 3.5286 10.3316 3.51995C10.1911 3.50106 9.99507 3.5 9.66667 3.5C9.33826 3.5 9.14226 3.50106 9.00178 3.51995C8.9374 3.5286 8.90516 3.5388 8.89064 3.54477C8.88888 3.5455 8.88744 3.54614 8.88628 3.54668C8.88522 3.54717 8.8844 3.54759 8.88378 3.54791Z" fill="#8B8B8B"/>
<path fill-rule="evenodd" clip-rule="evenodd" d="M9.63684 7.83333H9.6965C9.98504 7.8333 10.2496 7.83327 10.4648 7.8622C10.7018 7.89406 10.9523 7.96903 11.1583 8.17504C11.3643 8.38106 11.4393 8.63154 11.4711 8.86853C11.5001 9.08374 11.5 9.34829 11.5 9.63684V9.6965C11.5 9.98504 11.5001 10.2496 11.4711 10.4648C11.4393 10.7018 11.3643 10.9523 11.1583 11.1583C10.9523 11.3643 10.7018 11.4393 10.4648 11.4711C10.2496 11.5001 9.98504 11.5 9.6965 11.5H9.63684C9.34829 11.5 9.08374 11.5001 8.86853 11.4711C8.63154 11.4393 8.38106 11.3643 8.17504 11.1583C7.96903 10.9523 7.89406 10.7018 7.8622 10.4648C7.83327 10.2496 7.8333 9.98504 7.83333 9.6965V9.63684C7.8333 9.34829 7.83327 9.08374 7.8622 8.86853C7.89406 8.63154 7.96903 8.38106 8.17504 8.17504C8.38106 7.96903 8.63154 7.89406 8.86853 7.8622C9.08374 7.83327 9.34829 7.8333 9.63684 7.83333ZM8.88378 8.88124L8.88216 8.88216L8.88124 8.88378C8.88057 8.88507 8.87949 8.88728 8.87811 8.89064C8.87213 8.90516 8.86194 8.9374 8.85328 9.00178C8.8344 9.14226 8.83333 9.33826 8.83333 9.66667C8.83333 9.99507 8.8344 10.1911 8.85328 10.3316C8.86194 10.3959 8.87213 10.4282 8.87811 10.4427C8.87949 10.4461 8.88057 10.4483 8.88124 10.4496L8.88216 10.4512L8.88378 10.4521C8.88507 10.4528 8.88728 10.4538 8.89064 10.4552C8.90516 10.4612 8.9374 10.4714 9.00178 10.4801C9.14226 10.4989 9.33826 10.5 9.66667 10.5C9.99507 10.5 10.1911 10.4989 10.3316 10.4801C10.3959 10.4714 10.4282 10.4612 10.4427 10.4552C10.4434 10.455 10.444 10.4547 10.4446 10.4544C10.4469 10.4534 10.4485 10.4526 10.4496 10.4521L10.4512 10.4512L10.4521 10.4496C10.4528 10.4483 10.4538 10.4461 10.4552 10.4427C10.4612 10.4282 10.4714 10.3959 10.4801 10.3316C10.4989 10.1911 10.5 9.99507 10.5 9.66667C10.5 9.33826 10.4989 9.14226 10.4801 9.00178C10.4714 8.9374 10.4612 8.90516 10.4552 8.89064C10.4538 8.88728 10.4528 8.88507 10.4521 8.88378L10.4512 8.88216L10.4496 8.88124C10.4483 8.88057 10.4461 8.87949 10.4427 8.87811C10.4282 8.87213 10.3959 8.86194 10.3316 8.85328C10.1911 8.8344 9.99507 8.83333 9.66667 8.83333C9.33826 8.83333 9.14226 8.8344 9.00178 8.85328C8.9374 8.86194 8.90516 8.87213 8.89064 8.87811C8.88728 8.87949 8.88507 8.88057 8.88378 8.88124ZM8.88216 10.4512C8.88198 10.451 8.88189 10.4509 8.88216 10.4512C8.88246 10.4515 8.88239 10.4514 8.88216 10.4512Z" fill="#8B8B8B"/>
<path d="M1 8.5C1.27614 8.5 1.5 8.72386 1.5 9V9.66667C1.5 11.2315 2.76853 12.5 4.33333 12.5H5C5.27614 12.5 5.5 12.7239 5.5 13C5.5 13.2761 5.27614 13.5 5 13.5H4.33333C2.21624 13.5 0.5 11.7838 0.5 9.66667L0.5 9C0.5 8.72386 0.723858 8.5 1 8.5Z" fill="#8B8B8B"/>
<path d="M13 8.5C13.2761 8.5 13.5 8.72386 13.5 9V9.66667C13.5 11.7838 11.7838 13.5 9.66667 13.5H9C8.72386 13.5 8.5 13.2761 8.5 13C8.5 12.7239 8.72386 12.5 9 12.5H9.66667C11.2315 12.5 12.5 11.2315 12.5 9.66667V9C12.5 8.72386 12.7239 8.5 13 8.5Z" fill="#8B8B8B"/>
</svg>
