<svg width="165" height="166" viewBox="0 0 165 166" fill="none" xmlns="http://www.w3.org/2000/svg">
<path d="M0.326172 0.826172V8.65226V16.4783V24.3044V32.1305V39.9566V47.7827V55.6088H8.15226H15.9783H23.8044H31.6305H39.4566H47.2827H55.1088V47.7827V39.9566V32.1305V24.3044V16.4783V8.65226V0.826172H47.2827H39.4566H31.6305H23.8044H15.9783H8.15226H0.326172ZM62.9349 0.826172V8.65226V16.4783H70.761V8.65226H78.587V0.826172H70.761H62.9349ZM78.587 8.65226V16.4783H86.4131V8.65226H78.587ZM86.4131 16.4783V24.3044H94.2392H102.065V16.4783V8.65226V0.826172H94.2392V8.65226V16.4783H86.4131ZM86.4131 24.3044H78.587H70.761H62.9349V32.1305H70.761H78.587V39.9566H70.761V47.7827H78.587V55.6088H86.4131V47.7827H94.2392V55.6088H86.4131V63.4349H78.587V71.261H86.4131H94.2392V79.087H102.065V71.261V63.4349V55.6088V47.7827V39.9566H94.2392V32.1305H86.4131V24.3044ZM94.2392 79.087H86.4131V86.9131H78.587V94.7392V102.565H86.4131V110.391V118.217H78.587H70.761V110.391H78.587V102.565H70.761V94.7392V86.9131H62.9349V79.087H70.761V86.9131H78.587V79.087V71.261H70.761H62.9349V63.4349H55.1088H47.2827H39.4566V71.261H31.6305V79.087H23.8044V71.261H31.6305V63.4349H23.8044H15.9783V71.261H8.15226V79.087V86.9131V94.7392H15.9783V86.9131H23.8044H31.6305H39.4566V79.087H47.2827V71.261H55.1088V79.087H47.2827V86.9131H55.1088V94.7392H47.2827V102.565H55.1088H62.9349V110.391V118.217V126.044H70.761V133.87H78.587H86.4131H94.2392V141.696H86.4131H78.587H70.761V133.87H62.9349V141.696V149.522H70.761V157.348H62.9349V165.174H70.761H78.587V157.348H86.4131V165.174H94.2392H102.065H109.891H117.717V157.348H125.544V165.174H133.37H141.196H149.022V157.348H141.196H133.37V149.522H125.544V141.696H117.717V149.522H109.891H102.065V157.348H94.2392V149.522H102.065V141.696V133.87V126.044H109.891V118.217H102.065H94.2392V110.391H102.065V102.565V94.7392V86.9131H94.2392V79.087ZM117.717 141.696V133.87H109.891V141.696H117.717ZM133.37 149.522H141.196H149.022V141.696H141.196H133.37V149.522ZM149.022 141.696H156.848V133.87V126.044V118.217V110.391H149.022H141.196H133.37V102.565H125.544V110.391H117.717V118.217V126.044H125.544V118.217H133.37V126.044V133.87H141.196H149.022V141.696ZM125.544 102.565V94.7392H117.717H109.891V102.565H117.717H125.544ZM133.37 102.565H141.196V94.7392V86.9131V79.087H149.022V86.9131H156.848V94.7392H164.674V86.9131V79.087H156.848V71.261H164.674V63.4349H156.848H149.022V71.261H141.196V63.4349H133.37V71.261H125.544V79.087H133.37V86.9131V94.7392V102.565ZM125.544 79.087H117.717V86.9131H125.544V79.087ZM156.848 94.7392H149.022V102.565H156.848V94.7392ZM47.2827 94.7392V86.9131H39.4566V94.7392H47.2827ZM39.4566 94.7392H31.6305H23.8044H15.9783V102.565H23.8044H31.6305H39.4566V94.7392ZM8.15226 94.7392H0.326172V102.565H8.15226V94.7392ZM8.15226 71.261V63.4349H0.326172V71.261H8.15226ZM62.9349 63.4349H70.761V55.6088V47.7827H62.9349V55.6088V63.4349ZM109.891 0.826172V8.65226V16.4783V24.3044V32.1305V39.9566V47.7827V55.6088H117.717H125.544H133.37H141.196H149.022H156.848H164.674V47.7827V39.9566V32.1305V24.3044V16.4783V8.65226V0.826172H156.848H149.022H141.196H133.37H125.544H117.717H109.891ZM8.15226 8.65226H15.9783H23.8044H31.6305H39.4566H47.2827V16.4783V24.3044V32.1305V39.9566V47.7827H39.4566H31.6305H23.8044H15.9783H8.15226V39.9566V32.1305V24.3044V16.4783V8.65226ZM117.717 8.65226H125.544H133.37H141.196H149.022H156.848V16.4783V24.3044V32.1305V39.9566V47.7827H149.022H141.196H133.37H125.544H117.717V39.9566V32.1305V24.3044V16.4783V8.65226ZM15.9783 16.4783V24.3044V32.1305V39.9566H23.8044H31.6305H39.4566V32.1305V24.3044V16.4783H31.6305H23.8044H15.9783ZM125.544 16.4783V24.3044V32.1305V39.9566H133.37H141.196H149.022V32.1305V24.3044V16.4783H141.196H133.37H125.544ZM109.891 63.4349V71.261H117.717V63.4349H109.891ZM0.326172 110.391V118.217V126.044V133.87V141.696V149.522V157.348V165.174H8.15226H15.9783H23.8044H31.6305H39.4566H47.2827H55.1088V157.348V149.522V141.696V133.87V126.044V118.217V110.391H47.2827H39.4566H31.6305H23.8044H15.9783H8.15226H0.326172ZM8.15226 118.217H15.9783H23.8044H31.6305H39.4566H47.2827V126.044V133.87V141.696V149.522V157.348H39.4566H31.6305H23.8044H15.9783H8.15226V149.522V141.696V133.87V126.044V118.217ZM15.9783 126.044V133.87V141.696V149.522H23.8044H31.6305H39.4566V141.696V133.87V126.044H31.6305H23.8044H15.9783ZM156.848 149.522V157.348H164.674V149.522H156.848Z" fill="white"/>
</svg>
