<svg width="256" height="256" viewBox="0 0 256 256" fill="none" xmlns="http://www.w3.org/2000/svg">
<path d="M0.0449219 55.7189V0.575195H55.1887V19.7002H19.1699V55.7189H0.0449219ZM0.0449219 255.575V200.431H19.1699V236.45H55.1887V255.575H0.0449219ZM199.901 255.575V236.45H235.92V200.431H255.045V255.575H199.901ZM235.92 55.7189V19.7002H199.901V0.575195H255.045V55.7189H235.92ZM200.22 201.069H220.301V221.15H200.22V201.069ZM200.22 160.906H220.301V180.988H200.22V160.906ZM180.139 180.988H200.22V201.069H180.139V180.988ZM160.057 201.069H180.139V221.15H160.057V201.069ZM139.976 180.988H160.057V201.069H139.976V180.988ZM180.139 140.825H200.22V160.906H180.139V140.825ZM160.057 160.906H180.139V180.988H160.057V160.906ZM139.976 140.825H160.057V160.906H139.976V140.825ZM220.301 35.0002V115.325H139.976V35.0002H220.301ZM114.795 140.825V221.15H34.4699V140.825H114.795ZM114.795 35.0002V115.325H34.4699V35.0002H114.795ZM98.8574 205.213V156.763H50.4074V205.213H98.8574ZM98.8574 99.3877V50.9377H50.4074V99.3877H98.8574ZM204.364 99.3877V50.9377H155.914V99.3877H204.364Z" fill="#645ADF"/>
</svg>
