<svg width="17" height="19" viewBox="0 0 17 19" fill="none" xmlns="http://www.w3.org/2000/svg">
<path d="M2.89561 18.917C2.47894 18.917 2.12477 18.7712 1.83311 18.4795C1.54144 18.1878 1.39561 17.8337 1.39561 17.417V3.16699H0.370605V1.66699H5.07061V0.916992H11.6706V1.66699H16.3706V3.16699H15.3456V17.417C15.3456 17.817 15.1956 18.167 14.8956 18.467C14.5956 18.767 14.2456 18.917 13.8456 18.917H2.89561ZM13.8456 3.16699H2.89561V17.417H13.8456V3.16699ZM5.54561 15.267H7.04561V5.29199H5.54561V15.267ZM9.69561 15.267H11.1956V5.29199H9.69561V15.267ZM2.89561 3.16699V17.417V3.16699Z"/>
</svg>
