<svg width="27" height="21" viewBox="0 0 27 21" fill="none" xmlns="http://www.w3.org/2000/svg">
<path d="M5.74992 20.9284C4.32909 20.9284 3.11277 20.4225 2.10096 19.4107C1.08915 18.3989 0.583252 17.1826 0.583252 15.7617V5.42839C0.583252 4.00755 1.08915 2.79123 2.10096 1.77943C3.11277 0.767622 4.32909 0.261719 5.74992 0.261719H21.2499C22.6708 0.261719 23.8871 0.767622 24.8989 1.77943C25.9107 2.79123 26.4166 4.00755 26.4166 5.42839V15.7617C26.4166 17.1826 25.9107 18.3989 24.8989 19.4107C23.8871 20.4225 22.6708 20.9284 21.2499 20.9284H5.74992ZM5.74992 5.7513H21.2499C21.8742 5.7513 22.4609 5.84818 23.0098 6.04193C23.5588 6.23568 24.0485 6.51554 24.4791 6.88151V5.42839C24.4791 4.52422 24.1669 3.75998 23.5426 3.13568C22.9183 2.51137 22.1541 2.19922 21.2499 2.19922H5.74992C4.84575 2.19922 4.08152 2.51137 3.45721 3.13568C2.8329 3.75998 2.52075 4.52422 2.52075 5.42839V6.88151C2.95131 6.51554 3.44106 6.23568 3.99002 6.04193C4.53898 5.84818 5.12561 5.7513 5.74992 5.7513ZM2.61763 10.143L18.0208 13.8565C18.1714 13.8996 18.3275 13.9049 18.489 13.8727C18.6504 13.8404 18.785 13.7704 18.8926 13.6628L24.0593 9.33568C23.7794 8.84054 23.3919 8.44227 22.8968 8.14089C22.4017 7.8395 21.8527 7.6888 21.2499 7.6888H5.74992C4.99645 7.6888 4.32908 7.92023 3.74783 8.38307C3.16658 8.84592 2.78985 9.43255 2.61763 10.143Z" />
</svg>
