<svg width="113" height="90" viewBox="0 0 113 90" fill="none" xmlns="http://www.w3.org/2000/svg">
<path d="M23 89.3399C16.8583 89.3399 11.6007 87.1531 7.22704 82.7795C2.85343 78.4059 0.666626 73.1483 0.666626 67.0066V22.3399C0.666626 16.1983 2.85343 10.9406 7.22704 6.56701C11.6007 2.1934 16.8583 0.0065918 23 0.0065918H90C96.1416 0.0065918 101.399 2.1934 105.773 6.56701C110.146 10.9406 112.333 16.1983 112.333 22.3399V67.0066C112.333 73.1483 110.146 78.4059 105.773 82.7795C101.399 87.1531 96.1416 89.3399 90 89.3399H23ZM23 23.7358H90C92.6986 23.7358 95.2343 24.1545 97.6072 24.992C99.9802 25.8295 102.097 27.0392 103.958 28.6212V22.3399C103.958 18.4316 102.609 15.1281 99.9104 12.4295C97.2118 9.7309 93.9083 8.38159 90 8.38159H23C19.0916 8.38159 15.7882 9.7309 13.0895 12.4295C10.3909 15.1281 9.04163 18.4316 9.04163 22.3399V28.6212C10.9027 27.0392 13.0197 25.8295 15.3927 24.992C17.7656 24.1545 20.3013 23.7358 23 23.7358ZM9.46038 42.7191L76.0416 58.7712C76.693 58.9573 77.3677 58.9805 78.0656 58.841C78.7635 58.7014 79.3451 58.3989 79.8104 57.9337L102.144 39.2295C100.934 37.0892 99.259 35.3677 97.1187 34.0649C94.9784 32.7621 92.6055 32.1108 90 32.1108H23C19.743 32.1108 16.8583 33.1111 14.3458 35.1118C11.8333 37.1125 10.2048 39.6483 9.46038 42.7191Z" fill="#645ADF"/>
</svg>
