<svg xmlns="http://www.w3.org/2000/svg" xmlns:xlink="http://www.w3.org/1999/xlink" width="100" height="100" viewBox="0 0 100 100"><defs><style>.cls-1{fill:none;}.cls-2{fill:#24272e;}.cls-3{fill:#1b2028;}.cls-3,.cls-8{fill-rule:evenodd;}.cls-4{fill:#8b8b8b;}.cls-5{fill:#505050;}.cls-6{opacity:0.1;}.cls-7{fill:#dfeafb;}.cls-10,.cls-8{fill:#1573fe;}.cls-9{clip-path:url(#clip-path);}.cls-11{fill:#1674fe;}.cls-12{fill:#1774fe;}.cls-13{fill:#1875fe;}.cls-14{fill:#1975fe;}.cls-15{fill:#1a76fe;}.cls-16{fill:#1b76fe;}.cls-17{fill:#1c77fe;}.cls-18{fill:#1d78fe;}.cls-19{fill:#1e78fe;}.cls-20{fill:#1f79fe;}.cls-21{fill:#2079fe;}.cls-22{fill:#217afe;}.cls-23{fill:#227afe;}.cls-24{fill:#237bfe;}.cls-25{fill:#247cfe;}.cls-26{fill:#257cfe;}.cls-27{fill:#267dfe;}.cls-28{fill:#277dfe;}.cls-29{fill:#287efe;}.cls-30{fill:#297efe;}.cls-31{fill:#2a7ffe;}.cls-32{fill:#2b7ffe;}.cls-33{fill:#2c80fe;}.cls-34{fill:#2d81fe;}.cls-35{fill:#2e81fe;}.cls-36{fill:#2f82fe;}.cls-37{fill:#3082fe;}.cls-38{fill:#3183fe;}.cls-39{fill:#3283fe;}.cls-40{fill:#3384fe;}.cls-41{fill:#3485fe;}.cls-42{fill:#3585fe;}.cls-43{fill:#3686fe;}.cls-44{fill:#3786fe;}.cls-45{fill:#3887fe;}.cls-46{fill:#3987fe;}.cls-47{fill:#3a88fe;}.cls-48{fill:#3b89fe;}.cls-49{fill:#3c89fe;}.cls-50{fill:#3d8afe;}.cls-51{fill:#3e8afe;}.cls-52{fill:#3f8bfe;}.cls-53{fill:#408bfe;}.cls-54{fill:#418cfe;}.cls-55{fill:#428dfe;}.cls-56{fill:#438dfe;}.cls-57{fill:#448efe;}.cls-58{fill:#458efe;}.cls-59{fill:#468ffe;}.cls-60{fill:#478ffe;}.cls-61{fill:#4890fe;}.cls-62{fill:#4990fe;}.cls-63{fill:#4a91fe;}.cls-64{fill:#4b92fe;}.cls-65{fill:#4c92fe;}.cls-66{fill:#4d93fe;}.cls-67{fill:#4e93fe;}.cls-68{fill:#4f94fe;}.cls-69{fill:#5094fe;}.cls-70{fill:#5195fe;}.cls-71{fill:#5296fe;}.cls-72{fill:#5396fe;}.cls-73{fill:#5497fe;}.cls-74{fill:#5597fe;}.cls-75{fill:#5698fe;}.cls-76{fill:#5798fe;}.cls-77{fill:#5899fe;}.cls-78{fill:#599afe;}.cls-79{fill:#5a9afe;}.cls-80{fill:#5b9bfe;}.cls-81{fill:#5c9bfe;}.cls-82{fill:#5d9cfe;}.cls-83{fill:#5e9cfe;}.cls-84{fill:#5f9dfe;}.cls-85{fill:#619eff;}.cls-86{fill:#629eff;}.cls-87{fill:#639fff;}.cls-88{fill:#649fff;}.cls-89{fill:#65a0ff;}.cls-90{fill:#66a0ff;}.cls-91{fill:#67a1ff;}.cls-92{fill:#68a1ff;}.cls-93{fill:#69a2ff;}.cls-94{fill:#6aa3ff;}.cls-95{fill:#6ba3ff;}.cls-96{fill:#6ca4ff;}.cls-97{fill:#6da4ff;}.cls-98{fill:#6ea5ff;}.cls-99{fill:#6fa5ff;}.cls-100{fill:#70a6ff;}.cls-101{fill:#71a7ff;}.cls-102{fill:#72a7ff;}.cls-103{fill:#73a8ff;}.cls-104{fill:#74a8ff;}.cls-105{fill:#75a9ff;}.cls-106{fill:#76a9ff;}.cls-107{fill:#7af;}.cls-108{fill:#78abff;}.cls-109{fill:#79abff;}.cls-110{fill:#7aacff;}.cls-111{fill:#7bacff;}.cls-112{fill:#7cadff;}.cls-113{fill:#7dadff;}.cls-114{fill:#7eaeff;}.cls-115{fill:#7fafff;}.cls-116{fill:#80afff;}.cls-117{fill:#81b0ff;}.cls-118{fill:#82b0ff;}.cls-119{fill:#83b1ff;}.cls-120{fill:#84b1ff;}.cls-121{fill:#85b2ff;}.cls-122{fill:#86b2ff;}.cls-123{fill:#87b3ff;}.cls-124{fill:#88b4ff;}.cls-125{fill:#89b4ff;}.cls-126{fill:#8ab5ff;}.cls-127{fill:#8bb5ff;}.cls-128{fill:#8cb6ff;}.cls-129{fill:#8db6ff;}.cls-130{fill:#8eb7ff;}.cls-131{fill:#8fb8ff;}.cls-132{fill:#90b8ff;}.cls-133{fill:#91b9ff;}.cls-134{fill:#92b9ff;}.cls-135{fill:#93baff;}.cls-136{fill:#94baff;}.cls-137{fill:#95bbff;}.cls-138{fill:#96bcff;}.cls-139{fill:#97bcff;}.cls-140{fill:#98bdff;}.cls-141{fill:#99bdff;}.cls-142{fill:#9abeff;}.cls-143{fill:#9bbeff;}.cls-144{fill:#9cbfff;}.cls-145{fill:#9dc0ff;}.cls-146{fill:#9ec0ff;}.cls-147{fill:#9fc1ff;}.cls-148{fill:#a0c1ff;}.cls-149{fill:#a1c2ff;}.cls-150{fill:#a2c2ff;}.cls-151{fill:#a3c3ff;}.cls-152{fill:#a4c3ff;}.cls-153{fill:#a5c4ff;}.cls-154{fill:#a6c5ff;}.cls-155{fill:#a7c5ff;}.cls-156{fill:#a8c6ff;}.cls-157{fill:#a9c6ff;}.cls-158{fill:#aac7ff;}.cls-159{fill:#abc7ff;}.cls-160{fill:#acc8ff;}</style><clipPath id="clip-path"><path class="cls-1" d="M53.24,66.54c-.72,0-1.39,0-2,0A4.09,4.09,0,0,1,47.75,64L44,56.54a1.55,1.55,0,0,1-.38-1.17,1.61,1.61,0,0,1,.54-1.1,1.52,1.52,0,0,1,.93-.32,1.78,1.78,0,0,1,.72.18,1.7,1.7,0,0,1,.57.46l1.73,2.35,0,0V48.05a1.68,1.68,0,0,1,.49-1.18,1.67,1.67,0,0,1,2.36,0,1.68,1.68,0,0,1,.49,1.18v5.84a1.71,1.71,0,0,1,.07-.64,1.55,1.55,0,0,1,.33-.55,1.62,1.62,0,0,1,.52-.38,1.57,1.57,0,0,1,1.25,0,1.52,1.52,0,0,1,.52.38,1.55,1.55,0,0,1,.33.55,1.52,1.52,0,0,1,.07.64V55.1a1.5,1.5,0,0,1,.08-.63,1.64,1.64,0,0,1,.32-.56,1.76,1.76,0,0,1,.52-.37,1.51,1.51,0,0,1,.63-.13,1.47,1.47,0,0,1,.62.13,1.64,1.64,0,0,1,.52.37,1.51,1.51,0,0,1,.33.56,1.68,1.68,0,0,1,.08.63V56a1.5,1.5,0,0,1,.4-1.19,1.5,1.5,0,0,1,.52-.37,1.47,1.47,0,0,1,.62-.13,1.51,1.51,0,0,1,.63.13,1.59,1.59,0,0,1,.52.37,1.69,1.69,0,0,1,.32.55,1.55,1.55,0,0,1,.08.64v5.69c0,1.75-.82,4.7-3.61,4.7-.2,0-1.91.11-3.86.11Z"/></clipPath></defs><title>Step 1 main</title><g id="Layer_2" data-name="Layer 2"><g id="Layer_1-2" data-name="Layer 1"><circle class="cls-2" cx="50" cy="50" r="50"/><path class="cls-3" d="M29.79,18.57a8,8,0,0,0-8,8V77.34a8,8,0,0,0,8,8H67.71a8,8,0,0,0,8-8V31.71a8,8,0,0,0-8-8H45l-2.71-5.14Z"/><path class="cls-4" d="M28.75,68h40a1.43,1.43,0,0,1,1.42,1.43h0a1.43,1.43,0,0,1-1.42,1.43h-40a1.43,1.43,0,0,1-1.43-1.43h0A1.43,1.43,0,0,1,28.75,68Z"/><path class="cls-5" d="M28.75,76.84h40a1.43,1.43,0,0,1,1.42,1.43h0a1.43,1.43,0,0,1-1.42,1.43h-40a1.43,1.43,0,0,1-1.43-1.43h0A1.43,1.43,0,0,1,28.75,76.84Z"/><path class="cls-5" d="M28.57,59.29h40A1.42,1.42,0,0,1,70,60.71h0a1.43,1.43,0,0,1-1.43,1.43h-40a1.43,1.43,0,0,1-1.43-1.43h0A1.42,1.42,0,0,1,28.57,59.29Z"/><g class="cls-6"><ellipse class="cls-7" cx="49.64" cy="41.43" rx="10.71" ry="10.36"/></g><path class="cls-8" d="M50,36.66a.51.51,0,0,0-.52-.49.5.5,0,0,0-.52.49v.2a2.76,2.76,0,0,0-.65.26,2.36,2.36,0,0,0,.39,4.35l.26.09v3.06a1.47,1.47,0,0,1-.9-.66l-.26-.43a.53.53,0,0,0-.71-.17.47.47,0,0,0-.19.66l.26.43A2.55,2.55,0,0,0,49,45.62v.16a.5.5,0,0,0,.52.49.51.51,0,0,0,.52-.49v-.2a2.72,2.72,0,0,0,.65-.25A2.36,2.36,0,0,0,50.27,41L50,40.88V37.82a1.51,1.51,0,0,1,.9.67l.26.42a.53.53,0,0,0,.71.18.47.47,0,0,0,.18-.67L51.81,38A2.59,2.59,0,0,0,50,36.82ZM48.83,38l.14-.07v2.63A1.41,1.41,0,0,1,48.83,38Zm1.32,6.52-.14.07V41.93A1.4,1.4,0,0,1,50.15,44.48Z"/><path class="cls-8" d="M49.49,34.22a7.22,7.22,0,0,0-7.41,7,7.42,7.42,0,0,0,14.82,0A7.22,7.22,0,0,0,49.49,34.22Zm-6.38,7a6.38,6.38,0,1,1,6.38,6A6.21,6.21,0,0,1,43.11,41.22Z"/><g class="cls-9"><polygon class="cls-10" points="50.55 66.54 60.73 65.61 60.73 66.54 50.55 66.54"/><polygon class="cls-10" points="49.1 66.54 60.73 65.48 60.73 65.61 50.55 66.54 49.1 66.54"/><polygon class="cls-11" points="47.65 66.54 60.73 65.35 60.73 65.48 49.1 66.54 47.65 66.54"/><polygon class="cls-12" points="46.2 66.54 60.73 65.22 60.73 65.35 47.65 66.54 46.2 66.54"/><polygon class="cls-13" points="44.75 66.54 60.73 65.09 60.73 65.22 46.2 66.54 44.75 66.54"/><polygon class="cls-14" points="43.55 66.52 60.73 64.95 60.73 65.09 44.75 66.54 43.55 66.54 43.55 66.52"/><polygon class="cls-15" points="43.55 66.39 60.73 64.82 60.73 64.95 43.55 66.52 43.55 66.39"/><polygon class="cls-16" points="43.55 66.25 60.73 64.69 60.73 64.82 43.55 66.39 43.55 66.25"/><polygon class="cls-17" points="43.55 66.12 60.73 64.56 60.73 64.69 43.55 66.25 43.55 66.12"/><polygon class="cls-18" points="43.55 65.99 60.73 64.43 60.73 64.56 43.55 66.12 43.55 65.99"/><polygon class="cls-19" points="43.55 65.86 60.73 64.3 60.73 64.43 43.55 65.99 43.55 65.86"/><polygon class="cls-20" points="43.55 65.72 60.73 64.16 60.73 64.3 43.55 65.86 43.55 65.72"/><polygon class="cls-21" points="43.55 65.59 60.73 64.03 60.73 64.16 43.55 65.72 43.55 65.59"/><polygon class="cls-22" points="43.55 65.46 60.73 63.9 60.73 64.03 43.55 65.59 43.55 65.46"/><polygon class="cls-23" points="43.55 65.33 60.73 63.77 60.73 63.9 43.55 65.46 43.55 65.33"/><polygon class="cls-24" points="43.55 65.2 60.73 63.63 60.73 63.77 43.55 65.33 43.55 65.2"/><polygon class="cls-25" points="43.55 65.06 60.73 63.5 60.73 63.63 43.55 65.2 43.55 65.06"/><polygon class="cls-26" points="43.55 64.93 60.73 63.37 60.73 63.5 43.55 65.06 43.55 64.93"/><polygon class="cls-27" points="43.55 64.8 60.73 63.24 60.73 63.37 43.55 64.93 43.55 64.8"/><polygon class="cls-28" points="43.55 64.67 60.73 63.11 60.73 63.24 43.55 64.8 43.55 64.67"/><polygon class="cls-29" points="43.55 64.54 60.73 62.98 60.73 63.11 43.55 64.67 43.55 64.54"/><polygon class="cls-30" points="43.55 64.41 60.73 62.84 60.73 62.98 43.55 64.54 43.55 64.41"/><polygon class="cls-31" points="43.55 64.27 60.73 62.71 60.73 62.84 43.55 64.41 43.55 64.27"/><polygon class="cls-32" points="43.55 64.14 60.73 62.58 60.73 62.71 43.55 64.27 43.55 64.14"/><polygon class="cls-33" points="43.55 64.01 60.73 62.45 60.73 62.58 43.55 64.14 43.55 64.01"/><polygon class="cls-34" points="43.55 63.88 60.73 62.32 60.73 62.45 43.55 64.01 43.55 63.88"/><polygon class="cls-35" points="43.55 63.75 60.73 62.18 60.73 62.32 43.55 63.88 43.55 63.75"/><polygon class="cls-36" points="43.55 63.61 60.73 62.05 60.73 62.18 43.55 63.75 43.55 63.61"/><polygon class="cls-37" points="43.55 63.48 60.73 61.92 60.73 62.05 43.55 63.61 43.55 63.48"/><polygon class="cls-38" points="43.55 63.35 60.73 61.79 60.73 61.92 43.55 63.48 43.55 63.35"/><polygon class="cls-39" points="43.55 63.22 60.73 61.66 60.73 61.79 43.55 63.35 43.55 63.22"/><polygon class="cls-40" points="43.55 63.09 60.73 61.52 60.73 61.66 43.55 63.22 43.55 63.09"/><polygon class="cls-41" points="43.55 62.95 60.73 61.39 60.73 61.52 43.55 63.09 43.55 62.95"/><polygon class="cls-42" points="43.55 62.82 60.73 61.26 60.73 61.39 43.55 62.95 43.55 62.82"/><polygon class="cls-43" points="43.55 62.69 60.73 61.13 60.73 61.26 43.55 62.82 43.55 62.69"/><polygon class="cls-44" points="43.55 62.56 60.73 61 60.73 61.13 43.55 62.69 43.55 62.56"/><polygon class="cls-45" points="43.55 62.43 60.73 60.87 60.73 61 43.55 62.56 43.55 62.43"/><polygon class="cls-46" points="43.55 62.3 60.73 60.73 60.73 60.87 43.55 62.43 43.55 62.3"/><polygon class="cls-47" points="43.55 62.16 60.73 60.6 60.73 60.73 43.55 62.3 43.55 62.16"/><polygon class="cls-48" points="43.55 62.03 60.73 60.47 60.73 60.6 43.55 62.16 43.55 62.03"/><polygon class="cls-49" points="43.55 61.9 60.73 60.34 60.73 60.47 43.55 62.03 43.55 61.9"/><polygon class="cls-50" points="43.55 61.77 60.73 60.2 60.73 60.34 43.55 61.9 43.55 61.77"/><polygon class="cls-51" points="43.55 61.63 60.73 60.07 60.73 60.2 43.55 61.77 43.55 61.63"/><polygon class="cls-52" points="43.55 61.5 60.73 59.94 60.73 60.07 43.55 61.63 43.55 61.5"/><polygon class="cls-53" points="43.55 61.37 60.73 59.81 60.73 59.94 43.55 61.5 43.55 61.37"/><polygon class="cls-54" points="43.55 61.24 60.73 59.68 60.73 59.81 43.55 61.37 43.55 61.24"/><polygon class="cls-55" points="43.55 61.11 60.73 59.55 60.73 59.68 43.55 61.24 43.55 61.11"/><polygon class="cls-56" points="43.55 60.98 60.73 59.41 60.73 59.55 43.55 61.11 43.55 60.98"/><polygon class="cls-57" points="43.55 60.84 60.73 59.28 60.73 59.41 43.55 60.98 43.55 60.84"/><polygon class="cls-58" points="43.55 60.71 60.73 59.15 60.73 59.28 43.55 60.84 43.55 60.71"/><polygon class="cls-59" points="43.55 60.58 60.73 59.02 60.73 59.15 43.55 60.71 43.55 60.58"/><polygon class="cls-60" points="43.55 60.45 60.73 58.89 60.73 59.02 43.55 60.58 43.55 60.45"/><polygon class="cls-61" points="43.55 60.32 60.73 58.75 60.73 58.89 43.55 60.45 43.55 60.32"/><polygon class="cls-62" points="43.55 60.18 60.73 58.62 60.73 58.75 43.55 60.32 43.55 60.18"/><polygon class="cls-63" points="43.55 60.05 60.73 58.49 60.73 58.62 43.55 60.18 43.55 60.05"/><polygon class="cls-64" points="43.55 59.92 60.73 58.36 60.73 58.49 43.55 60.05 43.55 59.92"/><polygon class="cls-65" points="43.55 59.79 60.73 58.23 60.73 58.36 43.55 59.92 43.55 59.79"/><polygon class="cls-66" points="43.55 59.66 60.73 58.09 60.73 58.23 43.55 59.79 43.55 59.66"/><polygon class="cls-67" points="43.55 59.52 60.73 57.96 60.73 58.09 43.55 59.66 43.55 59.52"/><polygon class="cls-68" points="43.55 59.39 60.73 57.83 60.73 57.96 43.55 59.52 43.55 59.39"/><polygon class="cls-69" points="43.55 59.26 60.73 57.7 60.73 57.83 43.55 59.39 43.55 59.26"/><polygon class="cls-70" points="43.55 59.13 60.73 57.57 60.73 57.7 43.55 59.26 43.55 59.13"/><polygon class="cls-71" points="43.55 59 60.73 57.44 60.73 57.57 43.55 59.13 43.55 59"/><polygon class="cls-72" points="43.55 58.87 60.73 57.3 60.73 57.44 43.55 59 43.55 58.87"/><polygon class="cls-73" points="43.55 58.73 60.73 57.17 60.73 57.3 43.55 58.87 43.55 58.73"/><polygon class="cls-74" points="43.55 58.6 60.73 57.04 60.73 57.17 43.55 58.73 43.55 58.6"/><polygon class="cls-75" points="43.55 58.47 60.73 56.91 60.73 57.04 43.55 58.6 43.55 58.47"/><polygon class="cls-76" points="43.55 58.34 60.73 56.77 60.73 56.91 43.55 58.47 43.55 58.34"/><polygon class="cls-77" points="43.55 58.21 60.73 56.64 60.73 56.77 43.55 58.34 43.55 58.21"/><polygon class="cls-78" points="43.55 58.07 60.73 56.51 60.73 56.64 43.55 58.21 43.55 58.07"/><polygon class="cls-79" points="43.55 57.94 60.73 56.38 60.73 56.51 43.55 58.07 43.55 57.94"/><polygon class="cls-80" points="43.55 57.81 60.73 56.25 60.73 56.38 43.55 57.94 43.55 57.81"/><polygon class="cls-81" points="43.55 57.68 60.73 56.12 60.73 56.25 43.55 57.81 43.55 57.68"/><polygon class="cls-82" points="43.55 57.55 60.73 55.98 60.73 56.12 43.55 57.68 43.55 57.55"/><polygon class="cls-83" points="43.55 57.41 60.73 55.85 60.73 55.98 43.55 57.55 43.55 57.41"/><polygon class="cls-84" points="43.55 57.28 60.73 55.72 60.73 55.85 43.55 57.41 43.55 57.28"/><polygon class="cls-85" points="43.55 57.15 60.73 55.59 60.73 55.72 43.55 57.28 43.55 57.15"/><polygon class="cls-86" points="43.55 57.02 60.73 55.46 60.73 55.59 43.55 57.15 43.55 57.02"/><polygon class="cls-87" points="43.55 56.89 60.73 55.32 60.73 55.46 43.55 57.02 43.55 56.89"/><polygon class="cls-88" points="43.55 56.75 60.73 55.19 60.73 55.32 43.55 56.89 43.55 56.75"/><polygon class="cls-89" points="43.55 56.62 60.73 55.06 60.73 55.19 43.55 56.75 43.55 56.62"/><polygon class="cls-90" points="43.55 56.49 60.73 54.93 60.73 55.06 43.55 56.62 43.55 56.49"/><polygon class="cls-91" points="43.55 56.36 60.73 54.8 60.73 54.93 43.55 56.49 43.55 56.36"/><polygon class="cls-92" points="43.55 56.23 60.73 54.66 60.73 54.8 43.55 56.36 43.55 56.23"/><polygon class="cls-93" points="43.55 56.09 60.73 54.53 60.73 54.66 43.55 56.23 43.55 56.09"/><polygon class="cls-94" points="43.55 55.96 60.73 54.4 60.73 54.53 43.55 56.09 43.55 55.96"/><polygon class="cls-95" points="43.55 55.83 60.73 54.27 60.73 54.4 43.55 55.96 43.55 55.83"/><polygon class="cls-96" points="43.55 55.7 60.73 54.14 60.73 54.27 43.55 55.83 43.55 55.7"/><polygon class="cls-97" points="43.55 55.57 60.73 54.01 60.73 54.14 43.55 55.7 43.55 55.57"/><polygon class="cls-98" points="43.55 55.44 60.73 53.87 60.73 54.01 43.55 55.57 43.55 55.44"/><polygon class="cls-99" points="43.55 55.3 60.73 53.74 60.73 53.87 43.55 55.44 43.55 55.3"/><polygon class="cls-100" points="43.55 55.17 60.73 53.61 60.73 53.74 43.55 55.3 43.55 55.17"/><polygon class="cls-101" points="43.55 55.04 60.73 53.48 60.73 53.61 43.55 55.17 43.55 55.04"/><polygon class="cls-102" points="43.55 54.91 60.73 53.35 60.73 53.48 43.55 55.04 43.55 54.91"/><polygon class="cls-103" points="43.55 54.78 60.73 53.21 60.73 53.35 43.55 54.91 43.55 54.78"/><polygon class="cls-104" points="43.55 54.64 60.73 53.08 60.73 53.21 43.55 54.78 43.55 54.64"/><polygon class="cls-105" points="43.55 54.51 60.73 52.95 60.73 53.08 43.55 54.64 43.55 54.51"/><polygon class="cls-106" points="43.55 54.38 60.73 52.82 60.73 52.95 43.55 54.51 43.55 54.38"/><polygon class="cls-107" points="43.55 54.25 60.73 52.69 60.73 52.82 43.55 54.38 43.55 54.25"/><polygon class="cls-108" points="43.55 54.12 60.73 52.55 60.73 52.69 43.55 54.25 43.55 54.12"/><polygon class="cls-109" points="43.55 53.98 60.73 52.42 60.73 52.55 43.55 54.12 43.55 53.98"/><polygon class="cls-110" points="43.55 53.85 60.73 52.29 60.73 52.42 43.55 53.98 43.55 53.85"/><polygon class="cls-111" points="43.55 53.72 60.73 52.16 60.73 52.29 43.55 53.85 43.55 53.72"/><polygon class="cls-112" points="43.55 53.59 60.73 52.03 60.73 52.16 43.55 53.72 43.55 53.59"/><polygon class="cls-113" points="43.55 53.46 60.73 51.89 60.73 52.03 43.55 53.59 43.55 53.46"/><polygon class="cls-114" points="43.55 53.33 60.73 51.76 60.73 51.89 43.55 53.46 43.55 53.33"/><polygon class="cls-115" points="43.55 53.19 60.73 51.63 60.73 51.76 43.55 53.33 43.55 53.19"/><polygon class="cls-116" points="43.55 53.06 60.73 51.5 60.73 51.63 43.55 53.19 43.55 53.06"/><polygon class="cls-117" points="43.55 52.93 60.73 51.37 60.73 51.5 43.55 53.06 43.55 52.93"/><polygon class="cls-118" points="43.55 52.8 60.73 51.23 60.73 51.37 43.55 52.93 43.55 52.8"/><polygon class="cls-119" points="43.55 52.66 60.73 51.1 60.73 51.23 43.55 52.8 43.55 52.66"/><polygon class="cls-120" points="43.55 52.53 60.73 50.97 60.73 51.1 43.55 52.66 43.55 52.53"/><polygon class="cls-121" points="43.55 52.4 60.73 50.84 60.73 50.97 43.55 52.53 43.55 52.4"/><polygon class="cls-122" points="43.55 52.27 60.73 50.71 60.73 50.84 43.55 52.4 43.55 52.27"/><polygon class="cls-123" points="43.55 52.14 60.73 50.58 60.73 50.71 43.55 52.27 43.55 52.14"/><polygon class="cls-124" points="43.55 52.01 60.73 50.44 60.73 50.58 43.55 52.14 43.55 52.01"/><polygon class="cls-125" points="43.55 51.87 60.73 50.31 60.73 50.44 43.55 52.01 43.55 51.87"/><polygon class="cls-126" points="43.55 51.74 60.73 50.18 60.73 50.31 43.55 51.87 43.55 51.74"/><polygon class="cls-127" points="43.55 51.61 60.73 50.05 60.73 50.18 43.55 51.74 43.55 51.61"/><polygon class="cls-128" points="43.55 51.48 60.73 49.92 60.73 50.05 43.55 51.61 43.55 51.48"/><polygon class="cls-129" points="43.55 51.35 60.73 49.78 60.73 49.92 43.55 51.48 43.55 51.35"/><polygon class="cls-130" points="43.55 51.21 60.73 49.65 60.73 49.78 43.55 51.35 43.55 51.21"/><polygon class="cls-131" points="43.55 51.08 60.73 49.52 60.73 49.65 43.55 51.21 43.55 51.08"/><polygon class="cls-132" points="43.55 50.95 60.73 49.39 60.73 49.52 43.55 51.08 43.55 50.95"/><polygon class="cls-133" points="43.55 50.82 60.73 49.26 60.73 49.39 43.55 50.95 43.55 50.82"/><polygon class="cls-134" points="43.55 50.69 60.73 49.12 60.73 49.26 43.55 50.82 43.55 50.69"/><polygon class="cls-135" points="43.55 50.55 60.73 48.99 60.73 49.12 43.55 50.69 43.55 50.55"/><polygon class="cls-136" points="43.55 50.42 60.73 48.86 60.73 48.99 43.55 50.55 43.55 50.42"/><polygon class="cls-137" points="43.55 50.29 60.73 48.73 60.73 48.86 43.55 50.42 43.55 50.29"/><polygon class="cls-138" points="43.55 50.16 60.73 48.6 60.73 48.73 43.55 50.29 43.55 50.16"/><polygon class="cls-139" points="43.55 50.03 60.73 48.46 60.73 48.6 43.55 50.16 43.55 50.03"/><polygon class="cls-140" points="43.55 49.9 60.73 48.33 60.73 48.46 43.55 50.03 43.55 49.9"/><polygon class="cls-141" points="43.55 49.76 60.73 48.2 60.73 48.33 43.55 49.9 43.55 49.76"/><polygon class="cls-142" points="43.55 49.63 60.73 48.07 60.73 48.2 43.55 49.76 43.55 49.63"/><polygon class="cls-143" points="43.55 49.5 60.73 47.94 60.73 48.07 43.55 49.63 43.55 49.5"/><polygon class="cls-144" points="43.55 49.37 60.73 47.8 60.73 47.94 43.55 49.5 43.55 49.37"/><polygon class="cls-145" points="43.55 49.23 60.73 47.67 60.73 47.8 43.55 49.37 43.55 49.23"/><polygon class="cls-146" points="43.55 49.1 60.73 47.54 60.73 47.67 43.55 49.23 43.55 49.1"/><polygon class="cls-147" points="43.55 48.97 60.73 47.41 60.73 47.54 43.55 49.1 43.55 48.97"/><polygon class="cls-148" points="43.55 48.84 60.73 47.28 60.73 47.41 43.55 48.97 43.55 48.84"/><polygon class="cls-149" points="43.55 48.71 60.73 47.15 60.73 47.28 43.55 48.84 43.55 48.71"/><polygon class="cls-150" points="43.55 48.58 60.73 47.01 60.73 47.15 43.55 48.71 43.55 48.58"/><polygon class="cls-151" points="43.55 48.44 60.73 46.88 60.73 47.01 43.55 48.58 43.55 48.44"/><polygon class="cls-152" points="43.55 48.31 60.73 46.75 60.73 46.88 43.55 48.44 43.55 48.31"/><polygon class="cls-153" points="43.55 48.18 60.73 46.62 60.73 46.75 43.55 48.31 43.55 48.18"/><polygon class="cls-154" points="43.55 48.05 60.73 46.49 60.73 46.62 43.55 48.18 43.55 48.05"/><polygon class="cls-155" points="43.55 47.92 60.45 46.38 60.73 46.38 60.73 46.49 43.55 48.05 43.55 47.92"/><polygon class="cls-156" points="43.55 47.78 59 46.38 60.45 46.38 43.55 47.92 43.55 47.78"/><polygon class="cls-157" points="43.55 47.65 57.55 46.38 59 46.38 43.55 47.78 43.55 47.65"/><polygon class="cls-158" points="43.55 47.52 56.1 46.38 57.55 46.38 43.55 47.65 43.55 47.52"/><polygon class="cls-159" points="43.55 47.39 54.65 46.38 56.1 46.38 43.55 47.52 43.55 47.39"/><polygon class="cls-160" points="43.55 47.26 53.2 46.38 54.65 46.38 43.55 47.39 43.55 47.26"/><polygon class="cls-160" points="53.2 46.38 43.55 47.26 43.55 46.38 53.2 46.38"/></g></g></g></svg>