<svg xmlns="http://www.w3.org/2000/svg" xmlns:xlink="http://www.w3.org/1999/xlink" width="100" height="100" viewBox="0 0 100 100"><defs><style>.cls-1{fill:none;}.cls-2{fill:#24272e;}.cls-3{fill:#1b2028;fill-rule:evenodd;}.cls-4{fill:#8b8b8b;}.cls-5{fill:#505050;}.cls-6{opacity:0.5;}.cls-7{fill:#1573fe;}.cls-8{clip-path:url(#clip-path);}.cls-9{fill:#acc8ff;}.cls-10{fill:#abc7ff;}.cls-11{fill:#aac7ff;}.cls-12{fill:#a9c6ff;}.cls-13{fill:#a8c6ff;}.cls-14{fill:#a7c5ff;}.cls-15{fill:#a6c5ff;}.cls-16{fill:#a5c4ff;}.cls-17{fill:#a4c3ff;}.cls-18{fill:#a3c3ff;}.cls-19{fill:#a2c2ff;}.cls-20{fill:#a1c2ff;}.cls-21{fill:#a0c1ff;}.cls-22{fill:#9fc1ff;}.cls-23{fill:#9ec0ff;}.cls-24{fill:#9dc0ff;}.cls-25{fill:#9cbfff;}.cls-26{fill:#9bbeff;}.cls-27{fill:#9abeff;}.cls-28{fill:#99bdff;}.cls-29{fill:#98bdff;}.cls-30{fill:#97bcff;}.cls-31{fill:#96bcff;}.cls-32{fill:#95bbff;}.cls-33{fill:#94baff;}.cls-34{fill:#93baff;}.cls-35{fill:#92b9ff;}.cls-36{fill:#91b9ff;}.cls-37{fill:#90b8ff;}.cls-38{fill:#8fb8ff;}.cls-39{fill:#8eb7ff;}.cls-40{fill:#8db6ff;}.cls-41{fill:#8cb6ff;}.cls-42{fill:#8bb5ff;}.cls-43{fill:#8ab5ff;}.cls-44{fill:#89b4ff;}.cls-45{fill:#88b4ff;}.cls-46{fill:#87b3ff;}.cls-47{fill:#86b2ff;}.cls-48{fill:#85b2ff;}.cls-49{fill:#84b1ff;}.cls-50{fill:#83b1ff;}.cls-51{fill:#82b0ff;}.cls-52{fill:#81b0ff;}.cls-53{fill:#80afff;}.cls-54{fill:#7fafff;}.cls-55{fill:#7eaeff;}.cls-56{fill:#7dadff;}.cls-57{fill:#7cadff;}.cls-58{fill:#7bacff;}.cls-59{fill:#7aacff;}.cls-60{fill:#79abff;}.cls-61{fill:#78abff;}.cls-62{fill:#7af;}.cls-63{fill:#76a9ff;}.cls-64{fill:#75a9ff;}.cls-65{fill:#74a8ff;}.cls-66{fill:#73a8ff;}.cls-67{fill:#72a7ff;}.cls-68{fill:#71a7ff;}.cls-69{fill:#70a6ff;}.cls-70{fill:#6fa5ff;}.cls-71{fill:#6ea5ff;}.cls-72{fill:#6da4ff;}.cls-73{fill:#6ca4ff;}.cls-74{fill:#6ba3ff;}.cls-75{fill:#6aa3ff;}.cls-76{fill:#69a2ff;}.cls-77{fill:#68a1ff;}.cls-78{fill:#67a1ff;}.cls-79{fill:#66a0ff;}.cls-80{fill:#65a0ff;}.cls-81{fill:#649fff;}.cls-82{fill:#639fff;}.cls-83{fill:#629eff;}.cls-84{fill:#619eff;}.cls-85{fill:#5f9dfe;}.cls-86{fill:#5e9cfe;}.cls-87{fill:#5d9cfe;}.cls-88{fill:#5c9bfe;}.cls-89{fill:#5b9bfe;}.cls-90{fill:#5a9afe;}.cls-91{fill:#599afe;}.cls-92{fill:#5899fe;}.cls-93{fill:#5798fe;}.cls-94{fill:#5698fe;}.cls-95{fill:#5597fe;}.cls-96{fill:#5497fe;}.cls-97{fill:#5396fe;}.cls-98{fill:#5296fe;}.cls-99{fill:#5195fe;}.cls-100{fill:#5094fe;}.cls-101{fill:#4f94fe;}.cls-102{fill:#4e93fe;}.cls-103{fill:#4d93fe;}.cls-104{fill:#4c92fe;}.cls-105{fill:#4b92fe;}.cls-106{fill:#4a91fe;}.cls-107{fill:#4990fe;}.cls-108{fill:#4890fe;}.cls-109{fill:#478ffe;}.cls-110{fill:#468ffe;}.cls-111{fill:#458efe;}.cls-112{fill:#448efe;}.cls-113{fill:#438dfe;}.cls-114{fill:#428dfe;}.cls-115{fill:#418cfe;}.cls-116{fill:#408bfe;}.cls-117{fill:#3f8bfe;}.cls-118{fill:#3e8afe;}.cls-119{fill:#3d8afe;}.cls-120{fill:#3c89fe;}.cls-121{fill:#3b89fe;}.cls-122{fill:#3a88fe;}.cls-123{fill:#3987fe;}.cls-124{fill:#3887fe;}.cls-125{fill:#3786fe;}.cls-126{fill:#3686fe;}.cls-127{fill:#3585fe;}.cls-128{fill:#3485fe;}.cls-129{fill:#3384fe;}.cls-130{fill:#3283fe;}.cls-131{fill:#3183fe;}.cls-132{fill:#3082fe;}.cls-133{fill:#2f82fe;}.cls-134{fill:#2e81fe;}.cls-135{fill:#2d81fe;}.cls-136{fill:#2c80fe;}.cls-137{fill:#2b7ffe;}.cls-138{fill:#2a7ffe;}.cls-139{fill:#297efe;}.cls-140{fill:#287efe;}.cls-141{fill:#277dfe;}.cls-142{fill:#267dfe;}.cls-143{fill:#257cfe;}.cls-144{fill:#247cfe;}.cls-145{fill:#237bfe;}.cls-146{fill:#227afe;}.cls-147{fill:#217afe;}.cls-148{fill:#2079fe;}.cls-149{fill:#1f79fe;}.cls-150{fill:#1e78fe;}.cls-151{fill:#1d78fe;}.cls-152{fill:#1c77fe;}.cls-153{fill:#1b76fe;}.cls-154{fill:#1a76fe;}.cls-155{fill:#1975fe;}.cls-156{fill:#1875fe;}.cls-157{fill:#1774fe;}.cls-158{fill:#1674fe;}.cls-159{fill:#fff;}</style><clipPath id="clip-path"><circle class="cls-1" cx="50.15" cy="43.39" r="12.68"/></clipPath></defs><title>Step 2 main</title><g id="Layer_2" data-name="Layer 2"><g id="Layer_1-2" data-name="Layer 1"><circle class="cls-2" cx="50" cy="50" r="50"/><path class="cls-3" d="M29.79,18.57a8,8,0,0,0-8,8V77.34a8,8,0,0,0,8,8H67.71a8,8,0,0,0,8-8V31.71a8,8,0,0,0-8-8H45l-2.71-5.14Z"/><path class="cls-4" d="M28.75,68h40a1.43,1.43,0,0,1,1.42,1.43h0a1.43,1.43,0,0,1-1.42,1.43h-40a1.43,1.43,0,0,1-1.43-1.43h0A1.43,1.43,0,0,1,28.75,68Z"/><path class="cls-5" d="M28.75,76.85h40a1.43,1.43,0,0,1,1.42,1.42h0a1.43,1.43,0,0,1-1.42,1.43h-40a1.43,1.43,0,0,1-1.43-1.43h0A1.43,1.43,0,0,1,28.75,76.85Z"/><path class="cls-5" d="M28.57,59.29h40A1.43,1.43,0,0,1,70,60.72h0a1.43,1.43,0,0,1-1.43,1.42h-40a1.43,1.43,0,0,1-1.43-1.42h0A1.43,1.43,0,0,1,28.57,59.29Z"/><g class="cls-6"><circle class="cls-7" cx="50.15" cy="43.39" r="12.68"/></g><g class="cls-8"><path class="cls-9" d="M62.83,30.71h0Z"/><rect class="cls-9" x="37.47" y="30.71" width="25.36" height="0.17"/><rect class="cls-10" x="37.47" y="30.88" width="25.36" height="0.17"/><rect class="cls-11" x="37.47" y="31.05" width="25.36" height="0.17"/><rect class="cls-12" x="37.47" y="31.22" width="25.36" height="0.17"/><rect class="cls-13" x="37.47" y="31.38" width="25.36" height="0.17"/><rect class="cls-14" x="37.47" y="31.55" width="25.36" height="0.17"/><rect class="cls-15" x="37.47" y="31.72" width="25.36" height="0.17"/><rect class="cls-16" x="37.47" y="31.89" width="25.36" height="0.17"/><rect class="cls-17" x="37.47" y="32.06" width="25.36" height="0.17"/><rect class="cls-18" x="37.47" y="32.22" width="25.36" height="0.17"/><rect class="cls-19" x="37.47" y="32.39" width="25.36" height="0.17"/><rect class="cls-20" x="37.47" y="32.56" width="25.36" height="0.17"/><rect class="cls-21" x="37.47" y="32.73" width="25.36" height="0.17"/><rect class="cls-22" x="37.47" y="32.9" width="25.36" height="0.17"/><rect class="cls-23" x="37.47" y="33.06" width="25.36" height="0.17"/><rect class="cls-24" x="37.47" y="33.23" width="25.36" height="0.17"/><rect class="cls-25" x="37.47" y="33.4" width="25.36" height="0.17"/><rect class="cls-26" x="37.47" y="33.57" width="25.36" height="0.17"/><rect class="cls-27" x="37.47" y="33.74" width="25.36" height="0.17"/><rect class="cls-28" x="37.47" y="33.9" width="25.36" height="0.17"/><rect class="cls-29" x="37.47" y="34.07" width="25.36" height="0.17"/><rect class="cls-30" x="37.47" y="34.24" width="25.36" height="0.17"/><rect class="cls-31" x="37.47" y="34.41" width="25.36" height="0.17"/><rect class="cls-32" x="37.47" y="34.58" width="25.36" height="0.17"/><rect class="cls-33" x="37.47" y="34.74" width="25.36" height="0.17"/><rect class="cls-34" x="37.47" y="34.91" width="25.36" height="0.17"/><rect class="cls-35" x="37.47" y="35.08" width="25.36" height="0.17"/><rect class="cls-36" x="37.47" y="35.25" width="25.36" height="0.17"/><rect class="cls-37" x="37.47" y="35.41" width="25.36" height="0.17"/><rect class="cls-38" x="37.47" y="35.58" width="25.36" height="0.17"/><rect class="cls-39" x="37.47" y="35.75" width="25.36" height="0.17"/><rect class="cls-40" x="37.47" y="35.92" width="25.36" height="0.17"/><rect class="cls-41" x="37.47" y="36.09" width="25.36" height="0.17"/><rect class="cls-42" x="37.47" y="36.25" width="25.36" height="0.17"/><rect class="cls-43" x="37.47" y="36.42" width="25.36" height="0.17"/><rect class="cls-44" x="37.47" y="36.59" width="25.36" height="0.17"/><rect class="cls-45" x="37.47" y="36.76" width="25.36" height="0.17"/><rect class="cls-46" x="37.47" y="36.93" width="25.36" height="0.17"/><rect class="cls-47" x="37.47" y="37.09" width="25.36" height="0.17"/><rect class="cls-48" x="37.47" y="37.26" width="25.36" height="0.17"/><rect class="cls-49" x="37.47" y="37.43" width="25.36" height="0.17"/><rect class="cls-50" x="37.47" y="37.6" width="25.36" height="0.17"/><rect class="cls-51" x="37.47" y="37.77" width="25.36" height="0.17"/><rect class="cls-52" x="37.47" y="37.93" width="25.36" height="0.17"/><rect class="cls-53" x="37.47" y="38.1" width="25.36" height="0.17"/><rect class="cls-54" x="37.47" y="38.27" width="25.36" height="0.17"/><rect class="cls-55" x="37.47" y="38.44" width="25.36" height="0.17"/><rect class="cls-56" x="37.47" y="38.61" width="25.36" height="0.17"/><rect class="cls-57" x="37.47" y="38.77" width="25.36" height="0.17"/><rect class="cls-58" x="37.47" y="38.94" width="25.36" height="0.17"/><rect class="cls-59" x="37.47" y="39.11" width="25.36" height="0.17"/><rect class="cls-60" x="37.47" y="39.28" width="25.36" height="0.17"/><rect class="cls-61" x="37.47" y="39.45" width="25.36" height="0.17"/><rect class="cls-62" x="37.47" y="39.61" width="25.36" height="0.17"/><rect class="cls-63" x="37.47" y="39.78" width="25.36" height="0.17"/><rect class="cls-64" x="37.47" y="39.95" width="25.36" height="0.17"/><rect class="cls-65" x="37.47" y="40.12" width="25.36" height="0.17"/><rect class="cls-66" x="37.47" y="40.28" width="25.36" height="0.17"/><rect class="cls-67" x="37.47" y="40.45" width="25.36" height="0.17"/><rect class="cls-68" x="37.47" y="40.62" width="25.36" height="0.17"/><rect class="cls-69" x="37.47" y="40.79" width="25.36" height="0.17"/><rect class="cls-70" x="37.47" y="40.96" width="25.36" height="0.17"/><rect class="cls-71" x="37.47" y="41.12" width="25.36" height="0.17"/><rect class="cls-72" x="37.47" y="41.29" width="25.36" height="0.17"/><rect class="cls-73" x="37.47" y="41.46" width="25.36" height="0.17"/><rect class="cls-74" x="37.47" y="41.63" width="25.36" height="0.17"/><rect class="cls-75" x="37.47" y="41.8" width="25.36" height="0.17"/><rect class="cls-76" x="37.47" y="41.96" width="25.36" height="0.17"/><rect class="cls-77" x="37.47" y="42.13" width="25.36" height="0.17"/><rect class="cls-78" x="37.47" y="42.3" width="25.36" height="0.17"/><rect class="cls-79" x="37.47" y="42.47" width="25.36" height="0.17"/><rect class="cls-80" x="37.47" y="42.64" width="25.36" height="0.17"/><rect class="cls-81" x="37.47" y="42.8" width="25.36" height="0.17"/><rect class="cls-82" x="37.47" y="42.97" width="25.36" height="0.17"/><rect class="cls-83" x="37.47" y="43.14" width="25.36" height="0.17"/><rect class="cls-84" x="37.47" y="43.31" width="25.36" height="0.17"/><rect class="cls-85" x="37.47" y="43.48" width="25.36" height="0.17"/><rect class="cls-86" x="37.47" y="43.64" width="25.36" height="0.17"/><rect class="cls-87" x="37.47" y="43.81" width="25.36" height="0.17"/><rect class="cls-88" x="37.47" y="43.98" width="25.36" height="0.17"/><rect class="cls-89" x="37.47" y="44.15" width="25.36" height="0.17"/><rect class="cls-90" x="37.47" y="44.31" width="25.36" height="0.17"/><rect class="cls-91" x="37.47" y="44.48" width="25.36" height="0.17"/><rect class="cls-92" x="37.47" y="44.65" width="25.36" height="0.17"/><rect class="cls-93" x="37.47" y="44.82" width="25.36" height="0.17"/><rect class="cls-94" x="37.47" y="44.99" width="25.36" height="0.17"/><rect class="cls-95" x="37.47" y="45.15" width="25.36" height="0.17"/><rect class="cls-96" x="37.47" y="45.32" width="25.36" height="0.17"/><rect class="cls-97" x="37.47" y="45.49" width="25.36" height="0.17"/><rect class="cls-98" x="37.47" y="45.66" width="25.36" height="0.17"/><rect class="cls-99" x="37.47" y="45.83" width="25.36" height="0.17"/><rect class="cls-100" x="37.47" y="45.99" width="25.36" height="0.17"/><rect class="cls-101" x="37.47" y="46.16" width="25.36" height="0.17"/><rect class="cls-102" x="37.47" y="46.33" width="25.36" height="0.17"/><rect class="cls-103" x="37.47" y="46.5" width="25.36" height="0.17"/><rect class="cls-104" x="37.47" y="46.67" width="25.36" height="0.17"/><rect class="cls-105" x="37.47" y="46.83" width="25.36" height="0.17"/><rect class="cls-106" x="37.47" y="47" width="25.36" height="0.17"/><rect class="cls-107" x="37.47" y="47.17" width="25.36" height="0.17"/><rect class="cls-108" x="37.47" y="47.34" width="25.36" height="0.17"/><rect class="cls-109" x="37.47" y="47.51" width="25.36" height="0.17"/><rect class="cls-110" x="37.47" y="47.67" width="25.36" height="0.17"/><rect class="cls-111" x="37.47" y="47.84" width="25.36" height="0.17"/><rect class="cls-112" x="37.47" y="48.01" width="25.36" height="0.17"/><rect class="cls-113" x="37.47" y="48.18" width="25.36" height="0.17"/><rect class="cls-114" x="37.47" y="48.35" width="25.36" height="0.17"/><rect class="cls-115" x="37.47" y="48.51" width="25.36" height="0.17"/><rect class="cls-116" x="37.47" y="48.68" width="25.36" height="0.17"/><rect class="cls-117" x="37.47" y="48.85" width="25.36" height="0.17"/><rect class="cls-118" x="37.47" y="49.02" width="25.36" height="0.17"/><rect class="cls-119" x="37.47" y="49.18" width="25.36" height="0.17"/><rect class="cls-120" x="37.47" y="49.35" width="25.36" height="0.17"/><rect class="cls-121" x="37.47" y="49.52" width="25.36" height="0.17"/><rect class="cls-122" x="37.47" y="49.69" width="25.36" height="0.17"/><rect class="cls-123" x="37.47" y="49.86" width="25.36" height="0.17"/><rect class="cls-124" x="37.47" y="50.02" width="25.36" height="0.17"/><rect class="cls-125" x="37.47" y="50.19" width="25.36" height="0.17"/><rect class="cls-126" x="37.47" y="50.36" width="25.36" height="0.17"/><rect class="cls-127" x="37.47" y="50.53" width="25.36" height="0.17"/><rect class="cls-128" x="37.47" y="50.7" width="25.36" height="0.17"/><rect class="cls-129" x="37.47" y="50.86" width="25.36" height="0.17"/><rect class="cls-130" x="37.47" y="51.03" width="25.36" height="0.17"/><rect class="cls-131" x="37.47" y="51.2" width="25.36" height="0.17"/><rect class="cls-132" x="37.47" y="51.37" width="25.36" height="0.17"/><rect class="cls-133" x="37.47" y="51.54" width="25.36" height="0.17"/><rect class="cls-134" x="37.47" y="51.7" width="25.36" height="0.17"/><rect class="cls-135" x="37.47" y="51.87" width="25.36" height="0.17"/><rect class="cls-136" x="37.47" y="52.04" width="25.36" height="0.17"/><rect class="cls-137" x="37.47" y="52.21" width="25.36" height="0.17"/><rect class="cls-138" x="37.47" y="52.38" width="25.36" height="0.17"/><rect class="cls-139" x="37.47" y="52.54" width="25.36" height="0.17"/><rect class="cls-140" x="37.47" y="52.71" width="25.36" height="0.17"/><rect class="cls-141" x="37.47" y="52.88" width="25.36" height="0.17"/><rect class="cls-142" x="37.47" y="53.05" width="25.36" height="0.17"/><rect class="cls-143" x="37.47" y="53.22" width="25.36" height="0.17"/><rect class="cls-144" x="37.47" y="53.38" width="25.36" height="0.17"/><rect class="cls-145" x="37.47" y="53.55" width="25.36" height="0.17"/><rect class="cls-146" x="37.47" y="53.72" width="25.36" height="0.17"/><rect class="cls-147" x="37.47" y="53.89" width="25.36" height="0.17"/><rect class="cls-148" x="37.47" y="54.05" width="25.36" height="0.17"/><rect class="cls-149" x="37.47" y="54.22" width="25.36" height="0.17"/><rect class="cls-150" x="37.47" y="54.39" width="25.36" height="0.17"/><rect class="cls-151" x="37.47" y="54.56" width="25.36" height="0.17"/><rect class="cls-152" x="37.47" y="54.73" width="25.36" height="0.17"/><rect class="cls-153" x="37.47" y="54.89" width="25.36" height="0.17"/><rect class="cls-154" x="37.47" y="55.06" width="25.36" height="0.17"/><rect class="cls-155" x="37.47" y="55.23" width="25.36" height="0.17"/><rect class="cls-156" x="37.47" y="55.4" width="25.36" height="0.17"/><rect class="cls-157" x="37.47" y="55.57" width="25.36" height="0.17"/><rect class="cls-158" x="37.47" y="55.73" width="25.36" height="0.17"/><rect class="cls-7" x="37.47" y="55.9" width="25.36" height="0.17"/><path class="cls-7" d="M37.47,56.07h0Z"/></g><path class="cls-159" d="M55.72,43.26a1.4,1.4,0,0,1-.4,1,1.43,1.43,0,0,1-1,.41H45.71a1.39,1.39,0,0,1-1-.41,1.39,1.39,0,0,1,0-2,1.39,1.39,0,0,1,1-.41h8.62a1.43,1.43,0,0,1,1,.41A1.38,1.38,0,0,1,55.72,43.26Z"/></g></g></svg>